<?xml version="1.0" encoding="UTF-8" standalone="no"?>
<svg width="16px" height="16px" viewBox="0 0 16 16" version="1.1" xmlns="http://www.w3.org/2000/svg" xmlns:xlink="http://www.w3.org/1999/xlink">
    <!-- Generator: Sketch 39 (31667) - http://www.bohemiancoding.com/sketch -->
    <title>ic-min-upload-single</title>
    <desc>Created with Sketch.</desc>
    <defs></defs>
    <g id="Page-1" stroke="none" stroke-width="1" fill="none" fill-rule="evenodd">
        <g id="ic-min-upload-single" fill="#000000">
            <path d="M2.31238551,12.4999474 C6.08672523,12.4999473 8.5802322,12.4999473 11.6843877,12.4999474 C13.579876,12.4999472 14.8063034,11.11957 14.8063026,9.37790107 C14.8063019,7.90809711 13.4309994,6.35313062 12.5136795,6.35313051 C12.5136795,5.56546243 11.259542,3.39095887 8.8894864,3.4000279 C6.75645841,3.40818994 5.84972219,4.61995029 5.7436035,5.09298859 C4.94644329,5.0929886 4.42500462,5.08494899 3.51673385,5.71406307 C2.60846308,6.34317716 2.52038943,6.98718803 2.41977423,7.39524015 C2.03587012,7.22229598 6.95147975e-10,7.68165158 0,9.88560628 C-3.92630788e-10,11.1304364 0.99669721,12.4999472 2.31238551,12.4999474 Z M2.66162033,11.3903026 C3.80370587,11.3903026 11.1700175,11.3903026 11.6960401,11.3903026 C13.0848691,11.3903025 13.7474494,10.5181536 13.7474504,9.24202846 C13.7474515,7.872581 12.1087746,7.32003918 11.436652,7.3200391 C11.436652,6.74291275 11.0293585,4.49936513 8.80524057,4.49936769 C7.24232636,4.49936948 6.38243127,5.97598698 6.30467784,6.32258331 C5.72059659,6.32258331 4.91370454,6.0355427 4.1365827,6.68187793 C3.35946087,7.32821315 3.37751189,8.26326667 3.30379089,8.56224746 C3.0225034,8.43553084 1.18430997,8.27958899 1.18430997,9.89443203 C1.18430997,10.8065222 1.69761227,11.3903025 2.66162033,11.3903026 Z" id="Path-1"></path>
            <polygon id="Rectangle-180" points="6.66283617 9.54461534 5.18220591 9.54461534 7.4031513 6.58335482 9.62409669 9.54461534 8.14346643 9.54461534 8.14346643 11.7655607 6.66283617 11.7655607"></polygon>
        </g>
    </g>
</svg>
